<svg xmlns="http://www.w3.org/2000/svg" xmlns:svg="http://www.w3.org/2000/svg" id="Layer_1" width="106.308" height="105" x="0" y="0" version="1.1" viewBox="0 0 106.308 105" xml:space="preserve"><metadata id="metadata49"/><style id="style2" type="text/css">.st3{fill:#00a6e2}.st9{fill:#303030}.st13{fill:#fff}.st73{fill:#333435}</style><path id="path4" d="m 98.6,74.3 c -4.4,0 -8.2,-3 -9.3,-7.1 2.8,1 5.7,1.6 8.8,1.6 4.4,0 7.9,-3.5 7.9,-7.9 0,-4.4 -3.5,-7.9 -7.9,-7.9 -5.3,0 -9.9,-4.3 -9.9,-9.6 0,-0.7 0,-2.1 0,-2.1 V 35.2 C 88.2,15.8 72.5,0 53,0 33.5,0 17.8,15.7 17.8,35.2 v 6.1 c 0,0 0,1.3 0,2.1 0,5.3 -4.6,9.6 -9.9,9.6 -4.4,0 -7.9,3.5 -7.9,7.9 0,4.4 3.5,7.9 7.9,7.9 3.5,0 6.8,-0.7 9.8,-2 -1,4.3 -4.8,7.5 -9.4,7.5 -4.4,0 -7.9,3.5 -7.9,7.9 0,4.4 3.5,7.9 7.9,7.9 6.9,0 13.2,-2.8 17.8,-7.3 v 10.4 c 0,4.4 3.5,7.9 7.9,7.9 4.4,0 7.9,-3.5 7.9,-7.9 V 78.4 H 45 v 18.7 c 0,4.4 3.5,7.9 7.9,7.9 4.4,0 7.9,-3.5 7.9,-7.9 V 78.4 h 3.1 v 14.8 c 0,4.4 3.5,7.9 7.9,7.9 4.4,0 7.9,-3.5 7.9,-7.9 V 81.8 c 4.7,5.1 11.3,8.2 18.7,8.2 4.4,0 7.9,-3.5 7.9,-7.9 0.2,-4.2 -3.4,-7.8 -7.7,-7.8 z" class="st3" style="fill:#00a6e2"/><circle id="circle6" cx="53.1" cy="38.1" r="17.5" class="st13" style="fill:#fff"/><path id="path8" d="m 70.4,40.9 c -1.1,-5.5 -6.1,-9.7 -11.9,-9.7 -6.7,0 -12.2,5.5 -12.2,12.2 0,5.9 4.2,10.8 9.7,11.9 7.3,-1.2 13.1,-7 14.4,-14.4 z" class="st9" style="fill:#303030"/><g id="g22" transform="translate(-171.5,-71.6)"><path id="path10" d="m 58.1,64.1 c -0.2,-0.2 -0.4,-0.3 -0.7,-0.3 h -51 c -0.3,0 -0.5,0.1 -0.7,0.3 -0.2,0.2 -0.3,0.4 -0.3,0.7 v 51 c 0,0.3 0.1,0.5 0.3,0.7 0.2,0.2 0.4,0.3 0.7,0.3 h 51 c 0.3,0 0.5,-0.1 0.7,-0.3 0.2,-0.2 0.3,-0.4 0.3,-0.7 v -51 c 0,-0.2 -0.1,-0.5 -0.3,-0.7 z M 7.3,65.8 h 49 V 76 h -49 z m 49.1,49.1 H 7.4 V 78 h 49 z" class="st73" style="fill:#333435"/><path id="path12" d="m 13,67.5 c -1.9,0 -3.4,1.5 -3.4,3.4 0,1.9 1.5,3.4 3.4,3.4 1.9,0 3.4,-1.5 3.4,-3.4 0,-1.9 -1.5,-3.4 -3.4,-3.4 z m 0,4.8 c -0.8,0 -1.4,-0.6 -1.4,-1.4 0,-0.8 0.6,-1.4 1.4,-1.4 0.8,0 1.4,0.6 1.4,1.4 0,0.8 -0.6,1.4 -1.4,1.4 z" class="st73" style="fill:#333435"/><path id="path14" d="m 22.1,67.5 c -1.9,0 -3.4,1.5 -3.4,3.4 0,1.9 1.5,3.4 3.4,3.4 1.9,0 3.4,-1.5 3.4,-3.4 0,-1.9 -1.5,-3.4 -3.4,-3.4 z m 0,4.8 c -0.8,0 -1.4,-0.6 -1.4,-1.4 0,-0.8 0.6,-1.4 1.4,-1.4 0.8,0 1.4,0.6 1.4,1.4 0,0.8 -0.6,1.4 -1.4,1.4 z" class="st73" style="fill:#333435"/><path id="path16" d="m 31.2,67.5 c -1.9,0 -3.4,1.5 -3.4,3.4 0,1.9 1.5,3.4 3.4,3.4 1.9,0 3.4,-1.5 3.4,-3.4 0,-1.9 -1.5,-3.4 -3.4,-3.4 z m 0,4.8 c -0.8,0 -1.4,-0.6 -1.4,-1.4 0,-0.8 0.6,-1.4 1.4,-1.4 0.8,0 1.4,0.6 1.4,1.4 0.1,0.8 -0.6,1.4 -1.4,1.4 z" class="st73" style="fill:#333435"/><path id="path18" d="m 10.2,91.2 1.4,1.4 4.6,-4.6 c 0.1,-0.1 0.2,-0.2 0.4,-0.4 0.1,-0.2 0.2,-0.4 0.2,-0.8 0,-0.3 -0.1,-0.6 -0.2,-0.8 -0.1,-0.2 -0.2,-0.3 -0.4,-0.4 l -4.6,-4.6 -0.7,0.7 -0.7,0.7 0.7,0.7 3.6,3.6 -3.6,3.6 z" class="st73" style="fill:#333435"/><polygon id="polygon20" points="25.8 93.2 25.8 91.2 16.6 91.2 16.6 92.2 16.6 93.2" class="st73" style="fill:#333435"/></g><path id="path24" d="m 184.7,-30.3 c -15.9,0 -28.8,12.9 -28.8,28.8 0,15.9 12.9,28.8 28.8,28.8 15.9,0 28.8,-12.9 28.8,-28.8 0,-15.9 -12.9,-28.8 -28.8,-28.8 z m 5,8.9 c 0.1,0.4 0.4,0.7 0.8,0.8 0.1,0 0.3,0 0.4,0.1 -0.1,0 -0.2,0.1 -0.3,0.1 -0.9,0.2 -2,0.5 -3.3,1.2 -0.3,0.2 -0.5,0.4 -0.8,0.6 -0.9,0.8 -2,2.1 -2.9,3.3 -0.4,0.5 -0.7,0.9 -1,1.3 -0.2,-0.2 -0.5,-0.4 -0.8,-0.6 -0.4,-0.3 -1,-0.5 -1.6,-0.5 H 180 v 0 c -0.9,0.1 -1.8,0.1 -2.7,0.4 -0.5,0.2 -0.9,0.4 -1.3,0.8 -0.4,0.4 -0.7,0.9 -0.9,1.5 -0.3,0.7 -0.4,1.2 -0.4,1.8 0,0.2 0,0.4 0.1,0.7 0,0 0,0 0,0 -0.6,-0.2 -1,-0.4 -1.3,-0.7 0,0 -0.1,-0.1 -0.1,-0.3 -0.3,-0.6 -0.7,-1.7 -1.1,-2.6 -0.2,-0.5 -0.4,-0.9 -0.7,-1.3 -0.1,-0.2 -0.3,-0.4 -0.5,-0.6 -0.2,-0.2 -0.5,-0.3 -0.9,-0.4 -0.1,0 -0.2,0 -0.3,0 -0.2,-0.8 -0.3,-1.7 -0.3,-2.4 0,-0.2 0,-0.4 0,-0.5 v 0 c 0,-0.2 0.1,-0.3 0.2,-0.6 0.2,-0.3 0.7,-0.7 1.1,-1.2 0.2,-0.3 0.5,-0.6 0.6,-0.9 0.2,-0.4 0.3,-0.8 0.3,-1.3 0,-0.5 -0.1,-1 -0.3,-1.5 v 0 c 0,-0.1 -0.1,-0.2 -0.1,-0.2 2.8,-1.6 5.8,-2.7 9.1,-3.3 2,-0.1 4.7,-0.2 6.9,-0.2 -0.2,0.1 -0.5,0.2 -0.7,0.3 -0.7,0.3 -1.4,0.7 -1.9,1 -0.3,0.2 -0.5,0.3 -0.7,0.6 -0.1,0.1 -0.2,0.2 -0.3,0.4 -0.1,0.2 -0.2,0.4 -0.2,0.7 0,0 0,0.1 0,0.3 0,0.1 0.1,0.2 0.1,0.2 0.1,0.1 0.1,0.2 0.1,0.2 l 0.1,0.1 c 0.2,0.1 0.4,0.3 0.7,0.6 0.5,0.4 1,0.8 1.5,1.1 0.2,0.2 0.4,0.3 0.5,0.4 l 0.1,0.1 c 0.1,0.2 0.3,0.3 0.5,0.3 0.2,0 0.4,0.1 0.5,0.1 0.8,0 1.4,-0.4 1.9,-0.8 0.7,-0.6 1.3,-1.4 1.8,-1.9 0.3,-0.3 0.5,-0.5 0.8,-0.6 0.2,-0.1 0.5,-0.2 0.7,-0.2 0.2,0 0.5,0 0.8,0.2 0.1,0.2 0.1,0.3 0.2,0.5 0.2,0.4 0.4,0.8 0.6,1.1 -0.1,0 -0.1,0 -0.2,0.1 -0.6,0.1 -1.4,0.2 -2.2,0.3 -0.4,0 -0.7,0.1 -1.1,0.2 -0.3,0.1 -0.6,0.1 -1,0.3 -0.2,0.1 -0.4,0.5 -0.3,0.9 z m -20.1,-2.2 c 0.5,-0.3 1,-0.6 1.5,-0.9 -0.5,0.3 -1,0.6 -1.5,0.9 z m 20.2,-4.2 c 0.3,0.1 0.6,0.1 0.9,0.2 -0.4,-0.1 -0.7,-0.1 -0.9,-0.2 z m 1.2,0.3 c 0.6,0.1 1.1,0.3 1.7,0.5 -0.7,0.1 -1.3,0.4 -1.8,0.7 -0.9,0.6 -1.4,1.4 -2,2 -0.3,0.3 -0.5,0.5 -0.7,0.6 -0.2,0.1 -0.3,0.1 -0.4,0.2 0,0 0,0 0,0 -0.4,-0.3 -1.1,-0.8 -1.7,-1.3 -0.1,-0.1 -0.2,-0.1 -0.3,-0.2 0.4,-0.2 0.8,-0.5 1.3,-0.7 1,-0.5 2.1,-0.9 3,-1.3 0.3,-0.3 0.6,-0.4 0.9,-0.5 z m -4.3,-0.7 c 0.3,0 0.7,0.1 1,0.1 -0.3,0 -0.6,0 -1,-0.1 z m 1.6,0.2 c 0.3,0 0.6,0.1 0.9,0.1 -0.3,0 -0.6,-0.1 -0.9,-0.1 z m 4.4,0.9 c 0.5,0.1 0.9,0.3 1.4,0.5 -0.5,-0.1 -0.9,-0.3 -1.4,-0.5 z m 1.8,0.7 c 0.3,0.1 0.7,0.3 1,0.4 -0.4,-0.2 -0.7,-0.3 -1,-0.4 z m -8.3,-1.8 c -0.5,0 -1,0 -1.5,0 -0.7,0 -1.4,0 -2,0.1 0.7,0 1.3,-0.1 2,-0.1 0.5,-0.1 1,0 1.5,0 z m -5.8,0.3 c 0.6,-0.1 1.3,-0.2 1.9,-0.2 -0.6,0 -1.2,0.1 -1.9,0.2 z m 23.3,45.4 c -4.9,4.8 -11.5,7.8 -18.9,7.8 -7.4,0 -14.1,-3 -18.9,-7.8 -4.8,-4.9 -7.8,-11.5 -7.8,-18.9 0,-7.4 3,-14.1 7.8,-18.9 1.1,-1.1 2.4,-2.2 3.7,-3.1 0.1,0.3 0.2,0.5 0.2,0.7 0,0.2 -0.1,0.4 -0.2,0.6 -0.2,0.3 -0.6,0.7 -1.1,1.2 -0.2,0.2 -0.5,0.5 -0.7,0.9 -0.2,0.3 -0.3,0.8 -0.4,1.2 v 0 c 0,0.2 0,0.4 0,0.7 0,2.2 0.7,4.7 2.2,6.6 0.2,0.2 0.5,0.4 0.8,0.4 0.2,0 0.3,0 0.5,-0.1 0.1,0.1 0.1,0.3 0.1,0.4 0.1,0.3 0.3,0.7 0.4,0.9 0.1,0.1 0.1,0.3 0.2,0.4 0.1,0.1 0.2,0.3 0.3,0.4 0.9,0.8 2.1,1.2 3.2,1.4 1.1,0.3 2.1,0.4 2.8,0.7 0.3,0.1 0.5,0.2 0.6,0.4 0.2,0.2 0.5,0.5 0.9,0.9 0.3,0.3 0.7,0.6 1.3,0.8 -0.6,1 -0.9,2.2 -0.9,3.5 0,0.9 0.2,1.8 0.5,2.7 0.3,0.6 0.7,1.1 1.1,1.6 0.6,0.6 1.3,1 1.8,1.4 0.5,0.4 0.9,0.7 1.1,1.2 0.2,0.4 0.3,0.9 0.4,1.5 0.1,0.6 0.1,1.2 0.1,1.9 0,0.2 0,0.5 0,0.7 0,0.8 0,1.7 0.2,2.6 v 0 c 0.2,1 0.5,2.3 1.1,3.5 0.5,1.1 1.1,2.1 2,2.9 0.1,0.1 0.2,0.1 0.2,0.2 0,0 0,0 0,0 0,0 0.1,0.1 0.1,0.1 0.1,0.1 0.3,0.1 0.4,0.1 0,0 0,0 0,0 0,0 0,0 0,0 0.4,0 0.8,-0.2 1.1,-0.4 0.4,-0.4 0.6,-0.8 0.7,-1.2 0.1,-0.4 0.1,-0.9 0.1,-1.3 0,-0.5 -0.1,-1.1 -0.2,-1.6 0.2,-0.1 0.3,-0.1 0.4,-0.2 0.3,-0.2 0.5,-0.4 0.7,-0.6 0.2,-0.4 0.3,-0.7 0.4,-1.1 0,-0.3 0.1,-0.5 0.1,-0.7 0.2,0 0.5,-0.1 0.7,-0.2 0.3,-0.2 0.6,-0.4 0.7,-0.6 0.3,-0.3 0.4,-0.6 0.6,-0.9 0.2,-0.2 0.3,-0.5 0.6,-0.7 0.1,-0.1 0.8,-0.7 1.5,-1.3 0.4,-0.3 0.7,-0.6 1,-0.9 0.1,-0.1 0.2,-0.2 0.3,-0.3 v 0 c 0.1,-0.1 0.2,-0.2 0.3,-0.3 0.6,-0.9 1.1,-1.7 1.5,-2.5 0.4,-0.8 0.6,-1.6 0.6,-2.4 0,-0.7 -0.2,-1.3 -0.5,-1.9 -0.3,-0.6 -0.8,-1.1 -1.4,-1.6 -0.2,-0.2 -0.4,-0.3 -0.6,-0.3 -0.3,-0.1 -0.7,-0.2 -1.1,-0.3 -0.6,-0.1 -1.2,-0.3 -1.8,-0.4 -0.1,0 -0.2,0 -0.3,-0.1 0,-0.2 -0.1,-0.4 -0.1,-0.6 -0.1,-0.2 -0.3,-0.4 -0.4,-0.5 -0.2,-0.1 -0.3,-0.3 -0.6,-0.4 C 192,-5 190.7,-5.8 189.4,-6.4 188,-7 186.6,-7.6 185,-7.6 h -0.1 c -0.7,0 -1.4,0.2 -2.1,0.6 -0.4,0.2 -0.7,0.5 -1,0.8 -0.1,-0.2 -0.2,-0.4 -0.3,-0.6 -0.1,-0.2 -0.1,-0.4 -0.1,-0.7 0,-0.2 -0.1,-0.4 -0.2,-0.7 -0.1,-0.4 -0.5,-0.8 -0.9,-1 0,0 0,0 -0.1,0 0,-0.2 0.1,-0.4 0.1,-0.6 0,-0.3 -0.1,-0.6 -0.2,-0.9 -0.1,-0.3 -0.3,-0.5 -0.5,-0.6 -0.2,-0.1 -0.4,-0.1 -0.6,-0.1 -0.2,0 -0.4,0 -0.5,0.1 -0.5,0.1 -1,0.4 -1.5,0.6 -0.2,0.1 -0.5,0.2 -0.7,0.2 0,0 -0.1,0 -0.1,0 0,-0.2 0.1,-0.4 0.2,-0.7 0.2,-0.4 0.3,-0.7 0.5,-0.8 0.2,-0.2 0.5,-0.3 0.9,-0.4 0.4,-0.1 1.1,-0.1 1.8,-0.2 v 0 h 0.1 c 0.1,0 0.3,0 0.5,0.1 0.3,0.1 0.6,0.4 0.9,0.7 0.1,0.1 0.3,0.2 0.4,0.4 0.1,0.1 0.1,0.1 0.3,0.2 0.1,0.1 0.3,0.2 0.6,0.2 h 0.2 c 0.2,0 0.2,-0.1 0.3,-0.1 0.1,-0.1 0.1,-0.1 0.2,-0.1 l 0.1,-0.1 0.1,-0.1 v 0 c 0.2,-0.2 1.1,-1.4 2.1,-2.7 0.5,-0.6 1,-1.3 1.5,-1.8 0.2,-0.3 0.5,-0.5 0.6,-0.6 0.2,-0.2 0.3,-0.3 0.4,-0.3 1.1,-0.6 1.9,-0.7 2.8,-1 0.9,-0.2 2,-0.5 3.1,-1.3 0.3,-0.2 0.5,-0.5 0.4,-0.9 0,-0.2 -0.1,-0.3 -0.2,-0.5 0.3,-0.1 0.5,-0.1 0.8,-0.2 0.4,-0.1 0.8,-0.3 1.1,-0.5 0.2,-0.1 0.4,-0.3 0.5,-0.5 0.1,-0.2 0.2,-0.5 0.2,-0.8 0,0 0,0 0,0 0,0 0,0 0,0 0,-0.4 -0.2,-0.7 -0.6,-0.9 0,-0.1 -0.1,-0.1 -0.2,-0.2 -0.2,-0.3 -0.4,-0.6 -0.5,-0.9 0,-0.1 -0.1,-0.1 -0.1,-0.2 0,-0.1 0,-0.2 0,-0.4 0,0 0,-0.1 0,-0.1 3,1.3 5.7,3.2 8,5.5 5.3,4.1 8.3,10.8 8.3,18.2 0,7.4 -3,14.1 -7.8,19 z m -26,-26.9 c 0.2,-0.1 0.3,-0.1 0.5,-0.2 -0.1,0.1 -0.1,0.2 -0.1,0.3 -0.2,0 -0.3,0 -0.4,-0.1 z m 14.5,7.2 c 0.1,0.2 0.3,0.3 0.4,0.4 0.1,0.1 0.2,0.1 0.3,0.2 0.2,0.1 0.3,0.1 0.5,0.2 0.6,0.2 1.4,0.3 2.2,0.5 0.4,0.1 0.7,0.2 1,0.2 0.1,0 0.2,0.1 0.3,0.1 h 0.1 c 0.5,0.4 0.7,0.7 0.9,1 0.2,0.3 0.2,0.6 0.2,1 0,0.4 -0.1,1 -0.4,1.6 -0.3,0.6 -0.7,1.3 -1.2,2.1 -0.1,0.1 -0.3,0.3 -0.6,0.5 -0.9,0.7 -2.2,1.9 -2.3,2 -0.8,0.7 -1.1,1.4 -1.3,1.7 -0.1,0.1 -0.1,0.1 -0.2,0.2 -0.1,0 -0.2,0.1 -0.5,0.1 h -0.2 c 0,0 0,0 0,0 -0.4,0 -0.8,0.3 -0.9,0.6 -0.1,0.2 -0.1,0.3 -0.1,0.4 0,0.1 0,0.2 0,0.3 0,0.2 0,0.3 0,0.4 0,0.4 0,0.7 -0.1,0.8 l -0.1,0.1 c 0,0 -0.1,0 -0.2,0 -0.1,0 -0.2,0 -0.4,0 -0.1,0 -0.1,0 -0.2,0 -0.4,0 -0.7,0.2 -0.9,0.5 -0.2,0.4 -0.1,0.9 0.2,1.2 0,0 0,0.1 0.1,0.2 0.1,0.3 0.3,1 0.3,1.6 0,0.2 0,0.3 0,0.4 -0.3,-0.4 -0.7,-1 -0.9,-1.6 -0.5,-1 -0.8,-2.1 -0.9,-3 v 0 c -0.1,-0.6 -0.1,-1.4 -0.1,-2.2 0,-0.2 0,-0.5 0,-0.7 0,-0.7 0,-1.4 -0.1,-2.1 -0.1,-0.7 -0.3,-1.4 -0.6,-2.1 -0.3,-0.6 -0.7,-1 -1.1,-1.4 -0.6,-0.5 -1.2,-0.9 -1.7,-1.3 -0.5,-0.4 -0.9,-0.8 -1.1,-1.3 -0.3,-0.6 -0.4,-1.2 -0.4,-1.9 0,-1.2 0.5,-2.4 1.1,-3.3 0.3,-0.4 0.7,-0.8 1.1,-1 0.4,-0.2 0.7,-0.3 1,-0.3 v 0 c 1.1,0 2.3,0.4 3.6,1 1.2,0.5 2.3,1.3 3.3,1.9 0,0.1 -0.1,0.3 -0.1,0.4 -0.2,0.2 -0.1,0.4 0,0.6 z" class="st73" style="fill:#333435"/><path id="path26" d="m 186.3,111.7 v 0 c -1.4,0 -2.6,-0.5 -3.5,-1.4 -0.9,-0.9 -1.4,-2.1 -1.4,-3.5 0,-1.4 0.5,-2.6 1.4,-3.5 0.9,-0.9 2.1,-1.4 3.5,-1.4 1.4,0 2.6,0.5 3.5,1.4 0.9,0.9 1.4,2.1 1.4,3.5 0,1.4 -0.5,2.6 -1.4,3.5 -0.9,0.9 -2.1,1.4 -3.5,1.4 m 0,-11.8 c -3.8,0 -6.9,3.1 -6.9,6.9 0,3 1.9,5.6 4.6,6.5 0.7,-0.1 1.5,-0.1 2.3,-0.1 v 0 c 0.8,0 1.6,0 2.3,0.1 2.7,-0.9 4.6,-3.5 4.6,-6.5 0,-3.8 -3.1,-6.9 -6.9,-6.9" class="st73" style="fill:#333435"/><path id="path28" d="m 186.3,113.2 c -0.8,0 -1.6,0 -2.3,0.1 -2,0.2 -3.8,0.8 -5.3,1.6 0.7,0.4 1.4,0.8 2,1.3 1.6,-0.6 3.5,-1 5.6,-1 v 0 c 3.3,0 6,0.9 7.9,2.3 1.9,1.4 2.9,3.3 2.9,5.6 v 0.5 H 186 c 0.2,0.6 0.4,1.3 0.5,2 h 11.6 c 0.3,0 0.5,-0.1 0.7,-0.3 0.2,-0.2 0.3,-0.4 0.3,-0.7 v -1.5 c 0,-2.9 -1.4,-5.5 -3.7,-7.2 -1.8,-1.3 -4.1,-2.2 -6.8,-2.5 -0.7,-0.2 -1.5,-0.2 -2.3,-0.2 v 0" class="st73" style="fill:#333435"/><path id="path30" d="m 147.4,111.7 v 0 c -1.4,0 -2.6,-0.5 -3.5,-1.4 -0.9,-0.9 -1.4,-2.1 -1.4,-3.5 0,-1.4 0.5,-2.6 1.4,-3.5 0.9,-0.9 2.1,-1.4 3.5,-1.4 1.4,0 2.6,0.5 3.5,1.4 0.9,0.9 1.4,2.1 1.4,3.5 0,1.4 -0.5,2.6 -1.4,3.5 -0.9,0.9 -2.2,1.4 -3.5,1.4 m 0,-11.8 c -3.8,0 -6.9,3.1 -6.9,6.9 0,3 1.9,5.6 4.6,6.5 0.7,-0.1 1.5,-0.1 2.3,-0.1 v 0 c 0.8,0 1.6,0 2.3,0.1 2.7,-0.9 4.6,-3.5 4.6,-6.5 0,-3.8 -3.1,-6.9 -6.9,-6.9" class="st73" style="fill:#333435"/><path id="path32" d="m 147.4,113.2 c -0.8,0 -1.6,0 -2.3,0.1 -2.7,0.3 -5,1.2 -6.8,2.5 -2.3,1.7 -3.7,4.3 -3.7,7.2 v 1.5 c 0,0.3 0.1,0.5 0.3,0.7 0.2,0.2 0.4,0.3 0.7,0.3 h 11.6 c 0.1,-0.7 0.3,-1.4 0.5,-2 H 136.6 V 123 c 0,-2.3 1,-4.2 2.9,-5.6 1.9,-1.4 4.6,-2.3 7.9,-2.3 v 0 c 2.1,0 4,0.4 5.6,1 0.6,-0.5 1.3,-0.9 2,-1.3 -0.2,-0.1 -0.4,-0.2 -0.7,-0.3 -1.4,-0.6 -2.9,-1 -4.6,-1.2 -0.8,-0.1 -1.5,-0.1 -2.3,-0.1 v 0" class="st73" style="fill:#333435"/><path id="path34" d="m 165.2,112.1 c -1.4,-0.3 -2.6,-1 -3.5,-1.9 -1.3,-1.3 -2.1,-3.1 -2.1,-5.1 0,-2 0.8,-3.8 2.1,-5.1 1.3,-1.3 3.1,-2.1 5.1,-2.1 2,0 3.8,0.8 5.1,2.1 1.3,1.3 2.1,3.1 2.1,5.1 0,2 -0.8,3.8 -2.1,5.1 -1,1 -2.2,1.6 -3.5,1.9 -0.5,0.1 -1.1,0.2 -1.6,0.2 v 0 c -0.5,0 -1,0 -1.6,-0.2 m 1.7,-16.3 c -5.1,0 -9.3,4.2 -9.3,9.3 0,3.1 1.5,5.9 3.9,7.5 1.5,1.1 3.4,1.7 5.4,1.7 v 0 c 2,0 3.9,-0.6 5.4,-1.7 2.3,-1.7 3.9,-4.4 3.9,-7.5 -0.1,-5.2 -4.2,-9.3 -9.3,-9.3" class="st73" style="fill:#333435"/><path id="path36" d="m 151.3,128.9 v -1.1 c 0,-3.3 1.5,-6.1 4.2,-8.1 2.7,-2 6.6,-3.3 11.3,-3.3 v 0 c 4.7,0 8.6,1.2 11.3,3.3 2.7,2 4.2,4.8 4.2,8.1 v 1.1 h -31 m 15.6,-14.5 c -5,0 -9.4,1.3 -12.5,3.7 -3.1,2.3 -5,5.8 -5,9.7 v 2.1 c 0,0.3 0.1,0.5 0.3,0.7 0.2,0.2 0.4,0.3 0.7,0.3 h 33.1 c 0.3,0 0.5,-0.1 0.7,-0.3 0.2,-0.2 0.3,-0.4 0.3,-0.7 v -2.1 c 0,-4 -1.9,-7.4 -5,-9.7 -3.3,-2.4 -7.6,-3.7 -12.6,-3.7 v 0" class="st73" style="fill:#333435"/><path id="path38" d="M -43.9,118.9 -37,112 c 0.1,-0.1 0.1,-0.1 0.2,-0.2 L -31,106 c 0.5,-0.5 0.8,-1.2 0.8,-1.9 0,-0.7 -0.3,-1.4 -0.8,-1.9 l -8.3,-8.3 c -0.5,-0.5 -1.2,-0.8 -1.9,-0.8 0,0 0,0 0,0 0,0 0,0 0,0 -0.7,0 -1.4,0.3 -1.9,0.8 v 0 l -6,6 v 0 l -6.9,6.9 c -3,-3 -6,-6.1 -8.2,-8.5 -1.1,-1.2 -2.1,-2.2 -2.7,-2.9 -0.7,-0.7 -1,-1.1 -1,-1.1 v 0 c -0.7,-0.7 -1.5,-1 -2.2,-1 0,0 0,0 0,0 -0.5,0 -1,0.1 -1.4,0.3 -0.4,0.2 -0.7,0.4 -1,0.7 l -8,8 c -0.7,0.7 -1,1.5 -1,2.3 0,1 0.4,1.8 1,2.3 v 0 c 0,0 0.4,0.4 1.1,1.1 2.1,2 6.7,6.6 11.3,11.1 l -8.3,8.3 c -0.1,0.1 -0.2,0.2 -0.2,0.4 l -5,15.5 c -0.1,0.4 0,0.7 0.2,1 0.2,0.2 0.5,0.3 0.7,0.3 0.1,0 0.2,0 0.3,0 l 15.9,-4.7 c 0.2,0 0.3,-0.1 0.4,-0.3 l 8.2,-8.2 c 2.9,2.9 5.9,6 8.2,8.3 1.2,1.2 2.1,2.2 2.8,2.9 0.7,0.7 1.1,1.1 1.1,1.1 v 0 c 0.6,0.6 1.5,0.9 2.2,0.9 0,0 0,0 0,0 0.9,0 1.7,-0.3 2.3,-0.9 v 0 l 8,-8.1 v 0 c 0.6,-0.6 0.8,-1.3 0.9,-2.1 0,-0.6 -0.2,-1.3 -0.7,-1.8 -0.2,-0.2 -6.8,-6.8 -12.8,-12.8 z m 2.1,-23.6 v 0 c 0.1,-0.1 0.3,-0.2 0.5,-0.2 0.2,0 0.3,0.1 0.5,0.2 l 8.3,8.3 c 0.1,0.1 0.2,0.3 0.2,0.5 0,0.2 -0.1,0.3 -0.2,0.5 l -5.2,5.2 -9.3,-9.3 z m -25.1,37.6 h -3.4 v -3.4 l 24.7,-24.7 3.6,3.6 z m -4.3,-19.8 2.4,-2.4 -1.4,-1.4 -2.4,2.4 c -1.3,-1.2 -2.4,-2.4 -3.4,-3.3 l 5.6,-5.6 -1.4,-1.4 -5.6,5.6 c -1,-1 -1.6,-1.6 -1.7,-1.7 v 0 c -0.2,-0.2 -0.4,-0.6 -0.4,-0.9 0,-0.3 0.1,-0.5 0.4,-0.8 l 8,-8 c 0.1,-0.1 0.3,-0.2 0.4,-0.3 0.2,-0.1 0.3,-0.1 0.5,-0.1 0.2,0 0.5,0.1 0.9,0.4 v 0 c 0.5,0.5 6.1,6.7 12,12.6 l -9.4,9.4 c -1.6,-1.6 -3.1,-3.1 -4.5,-4.5 z m 22.8,-11.1 1.4,1.4 -24.5,24.5 -2.3,-0.5 z m -30.9,39.9 4.2,-12.8 2.9,0.6 v 4.1 c 0,0.3 0.1,0.5 0.3,0.7 0.2,0.2 0.4,0.3 0.7,0.3 h 4 l 0.9,3.2 z m 14.7,-5 -0.8,-2.7 24.8,-24.4 1.5,1.5 z m 31.8,-2.9 v 0 l -8,8.1 c -0.1,0.1 -0.5,0.3 -0.9,0.3 0,0 0,0 0,0 -0.3,0 -0.6,-0.1 -0.8,-0.3 -0.1,-0.1 -0.7,-0.7 -1.7,-1.8 l 5.7,-5.7 -1.4,-1.4 -5.7,5.7 c -1,-1 -2.1,-2.2 -3.3,-3.4 l 2.4,-2.4 -1.4,-1.4 -2.4,2.4 c -1.4,-1.4 -2.8,-2.9 -4.2,-4.3 l 9.3,-9.4 c 2.9,2.9 6,6 8.4,8.4 2.4,2.4 4.1,4.1 4.1,4.1 0.1,0.1 0.1,0.2 0.1,0.4 0.1,0.2 -0.1,0.5 -0.2,0.7 z" class="st73" style="fill:#333435"/><path id="path40" d="m -35.7,-51.4 c 4.7,0 8.9,-2 11.8,-5.2 3,3.2 7.2,5.2 11.8,5.2 v 0 c 3.9,0 7.4,-1.4 10.9,-3.6 v 33.1 c -0.2,0.6 -1.2,3.3 -4.2,6.6 -3.3,3.6 -8.9,7.9 -18.5,10.7 -9.8,-2.8 -15.5,-7.2 -18.7,-10.8 -1.6,-1.8 -2.7,-3.5 -3.3,-4.7 -0.3,-0.6 -0.5,-1.1 -0.6,-1.4 -0.1,-0.1 -0.1,-0.3 -0.1,-0.3 V -55 c 3.5,2.2 7,3.6 10.9,3.6 m 11.8,-7.7 v 0 c -0.3,0 -0.6,0.1 -0.8,0.4 -2.6,3.2 -6.6,5.3 -11,5.3 -3.9,0 -7.5,-1.6 -11.3,-4.3 -0.2,-0.1 -0.4,-0.2 -0.6,-0.2 -0.2,0 -0.3,0 -0.5,0.1 -0.3,0.2 -0.5,0.5 -0.5,0.9 v 35.1 c 0,0.1 0,0.2 0,0.3 0,0.1 1,3.4 4.5,7.4 3.5,4 9.6,8.6 19.9,11.5 0.1,0 0.2,0 0.3,0 0.1,0 0.2,0 0.3,0 10.3,-2.9 16.4,-7.5 19.9,-11.5 3.5,-4 4.4,-7.2 4.5,-7.4 0,-0.1 0,-0.2 0,-0.3 v -35 c 0,-0.4 -0.2,-0.7 -0.5,-0.9 -0.1,-0.1 -0.3,-0.1 -0.5,-0.1 -0.2,0 -0.4,0.1 -0.6,0.2 -3.9,2.7 -7.4,4.3 -11.3,4.3 v 0 c -4.5,0 -8.4,-2.1 -11,-5.3 -0.2,-0.3 -0.5,-0.5 -0.8,-0.5" class="st73" style="fill:#333435"/><path id="path42" d="m -13,-36.7 h 1 -1 m -21.7,8.5 v -7.5 h 6.1 c 0.3,0 0.5,-0.1 0.7,-0.3 0.2,-0.2 0.3,-0.4 0.3,-0.7 v -6.1 h 7.5 v 6.1 c 0,0.3 0.1,0.5 0.3,0.7 0.2,0.2 0.4,0.3 0.7,0.3 h 6.1 v 7.5 h -6.1 c -0.3,0 -0.5,0.1 -0.7,0.3 -0.2,0.2 -0.3,0.4 -0.3,0.7 v 6.1 h -7.5 v -6.1 c 0,-0.3 -0.1,-0.5 -0.3,-0.7 -0.2,-0.2 -0.4,-0.3 -0.7,-0.3 h -6.1 m 15.6,-16.6 h -9.5 c -0.3,0 -0.5,0.1 -0.7,0.3 -0.2,0.2 -0.3,0.4 -0.3,0.7 v 6.1 h -6.1 c -0.3,0 -0.5,0.1 -0.7,0.3 -0.2,0.2 -0.3,0.4 -0.3,0.7 v 9.5 c 0,0.3 0.1,0.5 0.3,0.7 0.2,0.2 0.4,0.3 0.7,0.3 h 6.1 v 6.1 c 0,0.3 0.1,0.5 0.3,0.7 0.2,0.2 0.4,0.3 0.7,0.3 h 9.5 c 0.3,0 0.5,-0.1 0.7,-0.3 0.2,-0.2 0.3,-0.4 0.3,-0.7 v -6.1 h 6.1 c 0.3,0 0.5,-0.1 0.7,-0.3 0.2,-0.2 0.3,-0.4 0.3,-0.7 v -9.5 c 0,-0.3 -0.1,-0.5 -0.3,-0.7 -0.2,-0.2 -0.4,-0.3 -0.7,-0.3 v 0 h -6.1 v -6.1 c 0,-0.3 -0.1,-0.5 -0.3,-0.7 -0.2,-0.2 -0.5,-0.3 -0.7,-0.3" class="st73" style="fill:#333435"/></svg>